STARTFONT 2.1
COMMENT AUTOMATICALLY GENERATED FILE. DO NOT EDIT!
COMMENT Generated with 'ucs2any.pl lubB08.bdf ../../../fonts/util/map-ISO8859-1 ISO8859-1'
COMMENT from an ISO10646-1 encoded source BDF font.
COMMENT ucs2any.pl by Markus Kuhn <mkuhn@acm.org>, 2000.
COMMENT $Xorg: $
COMMENT ISO10646-1 extension by Markus Kuhn <mkuhn@acm.org>, 2001-03-20
COMMENT  (c) Copyright Bigelow & Holmes 1986, 1985. Lucida is a registered
COMMENT  trademark of Bigelow & Holmes. See LEGAL NOTICE file for terms 
COMMENT  of the license. 
FONT -B&H-LucidaBright-DemiBold-R-Normal--8-80-75-75-P-47-ISO8859-1
SIZE 8 72 72
FONTBOUNDINGBOX 12 10 -3 -2
STARTPROPERTIES 22
COMMENT Begin LogicalFontDescription
FONTNAME_REGISTRY ""
FOUNDRY "B&H"
FAMILY_NAME "LucidaBright"
WEIGHT_NAME "DemiBold"
SLANT "R"
SETWIDTH_NAME "Normal"
ADD_STYLE_NAME ""
PIXEL_SIZE 8
POINT_SIZE 80
RESOLUTION_X 75
RESOLUTION_Y 75
SPACING "P"
AVERAGE_WIDTH 47
CHARSET_REGISTRY "ISO8859"
CHARSET_ENCODING "1"
COMMENT END LogicalFontDescription
FONT_ASCENT 7
FONT_DESCENT 2
DEFAULT_CHAR 0
COPYRIGHT "Copyright Bigelow & Holmes 1986, 1985."
FACE_NAME "Lucida Bright Demibold"
X_HEIGHT 4
CAP_HEIGHT 6
ENDPROPERTIES
CHARS 192
STARTCHAR defaultchar
ENCODING 0
SWIDTH 798 0
DWIDTH 6 0
BBX 7 5 0 0
BITMAP
AA
00
82
00
AA
ENDCHAR
STARTCHAR space
ENCODING 32
SWIDTH 333 0
DWIDTH 3 0
BBX 1 1 0 0
BITMAP
00
ENDCHAR
STARTCHAR exclam
ENCODING 33
SWIDTH 265 0
DWIDTH 2 0
BBX 1 6 1 0
BITMAP
80
80
80
80
00
80
ENDCHAR
STARTCHAR quotedbl
ENCODING 34
SWIDTH 461 0
DWIDTH 4 0
BBX 2 2 1 4
BITMAP
C0
C0
ENDCHAR
STARTCHAR numbersign
ENCODING 35
SWIDTH 663 0
DWIDTH 5 0
BBX 5 6 0 0
BITMAP
38
F8
50
F8
60
E0
ENDCHAR
STARTCHAR dollar
ENCODING 36
SWIDTH 623 0
DWIDTH 5 0
BBX 4 8 1 -1
BITMAP
20
F0
B0
60
30
B0
F0
20
ENDCHAR
STARTCHAR percent
ENCODING 37
SWIDTH 759 0
DWIDTH 6 0
BBX 6 6 0 0
BITMAP
E4
A8
F0
3C
54
9C
ENDCHAR
STARTCHAR ampersand
ENCODING 38
SWIDTH 765 0
DWIDTH 6 0
BBX 6 6 0 0
BITMAP
70
50
AC
A8
90
6C
ENDCHAR
STARTCHAR quotesingle
ENCODING 39
SWIDTH 253 0
DWIDTH 2 0
BBX 1 3 1 3
BITMAP
80
80
80
ENDCHAR
STARTCHAR parenleft
ENCODING 40
SWIDTH 327 0
DWIDTH 3 0
BBX 2 8 0 -2
BITMAP
40
80
80
80
80
80
80
40
ENDCHAR
STARTCHAR parenright
ENCODING 41
SWIDTH 327 0
DWIDTH 3 0
BBX 2 8 0 -2
BITMAP
80
40
40
40
40
40
40
80
ENDCHAR
STARTCHAR asterisk
ENCODING 42
SWIDTH 434 0
DWIDTH 4 0
BBX 3 3 0 3
BITMAP
40
A0
A0
ENDCHAR
STARTCHAR plus
ENCODING 43
SWIDTH 623 0
DWIDTH 5 0
BBX 5 5 0 0
BITMAP
20
20
F8
20
20
ENDCHAR
STARTCHAR comma
ENCODING 44
SWIDTH 265 0
DWIDTH 2 0
BBX 1 3 1 -2
BITMAP
80
80
80
ENDCHAR
STARTCHAR hyphen
ENCODING 45
SWIDTH 289 0
DWIDTH 2 0
BBX 2 1 0 2
BITMAP
C0
ENDCHAR
STARTCHAR period
ENCODING 46
SWIDTH 265 0
DWIDTH 2 0
BBX 1 1 1 0
BITMAP
80
ENDCHAR
STARTCHAR slash
ENCODING 47
SWIDTH 527 0
DWIDTH 4 0
BBX 4 8 0 -2
BITMAP
10
30
20
20
40
40
C0
80
ENDCHAR
STARTCHAR zero
ENCODING 48
SWIDTH 623 0
DWIDTH 5 0
BBX 4 6 0 0
BITMAP
60
90
90
90
90
60
ENDCHAR
STARTCHAR one
ENCODING 49
SWIDTH 623 0
DWIDTH 5 0
BBX 3 6 1 0
BITMAP
C0
40
40
40
40
E0
ENDCHAR
STARTCHAR two
ENCODING 50
SWIDTH 623 0
DWIDTH 5 0
BBX 4 6 0 0
BITMAP
E0
90
10
60
40
F0
ENDCHAR
STARTCHAR three
ENCODING 51
SWIDTH 623 0
DWIDTH 5 0
BBX 4 6 1 0
BITMAP
F0
90
60
10
90
E0
ENDCHAR
STARTCHAR four
ENCODING 52
SWIDTH 623 0
DWIDTH 5 0
BBX 5 6 0 0
BITMAP
30
70
D0
F8
10
38
ENDCHAR
STARTCHAR five
ENCODING 53
SWIDTH 623 0
DWIDTH 5 0
BBX 3 6 1 0
BITMAP
E0
80
E0
20
A0
C0
ENDCHAR
STARTCHAR six
ENCODING 54
SWIDTH 623 0
DWIDTH 5 0
BBX 4 6 0 0
BITMAP
70
90
E0
90
90
60
ENDCHAR
STARTCHAR seven
ENCODING 55
SWIDTH 623 0
DWIDTH 5 0
BBX 4 6 1 0
BITMAP
F0
30
20
40
C0
80
ENDCHAR
STARTCHAR eight
ENCODING 56
SWIDTH 623 0
DWIDTH 5 0
BBX 4 6 1 0
BITMAP
70
90
50
B0
90
60
ENDCHAR
STARTCHAR nine
ENCODING 57
SWIDTH 623 0
DWIDTH 5 0
BBX 4 6 1 0
BITMAP
60
90
90
70
90
E0
ENDCHAR
STARTCHAR colon
ENCODING 58
SWIDTH 265 0
DWIDTH 2 0
BBX 1 4 1 0
BITMAP
80
00
00
80
ENDCHAR
STARTCHAR semicolon
ENCODING 59
SWIDTH 265 0
DWIDTH 2 0
BBX 1 6 1 -2
BITMAP
80
00
00
80
80
80
ENDCHAR
STARTCHAR less
ENCODING 60
SWIDTH 623 0
DWIDTH 5 0
BBX 5 5 0 0
BITMAP
08
30
C0
30
08
ENDCHAR
STARTCHAR equal
ENCODING 61
SWIDTH 623 0
DWIDTH 5 0
BBX 5 2 0 1
BITMAP
F8
F8
ENDCHAR
STARTCHAR greater
ENCODING 62
SWIDTH 623 0
DWIDTH 5 0
BBX 5 5 0 0
BITMAP
80
60
18
60
80
ENDCHAR
STARTCHAR question
ENCODING 63
SWIDTH 505 0
DWIDTH 4 0
BBX 4 6 0 0
BITMAP
E0
90
30
40
40
40
ENDCHAR
STARTCHAR at
ENCODING 64
SWIDTH 861 0
DWIDTH 7 0
BBX 7 6 0 0
BITMAP
3C
5E
AE
AA
FC
78
ENDCHAR
STARTCHAR A
ENCODING 65
SWIDTH 795 0
DWIDTH 6 0
BBX 6 6 0 0
BITMAP
20
30
50
78
88
8C
ENDCHAR
STARTCHAR B
ENCODING 66
SWIDTH 639 0
DWIDTH 5 0
BBX 5 6 0 0
BITMAP
F8
48
70
48
48
F0
ENDCHAR
STARTCHAR C
ENCODING 67
SWIDTH 711 0
DWIDTH 6 0
BBX 5 6 0 0
BITMAP
78
C8
80
80
C0
78
ENDCHAR
STARTCHAR D
ENCODING 68
SWIDTH 794 0
DWIDTH 6 0
BBX 6 6 0 0
BITMAP
F8
44
44
44
44
F8
ENDCHAR
STARTCHAR E
ENCODING 69
SWIDTH 601 0
DWIDTH 5 0
BBX 5 6 0 0
BITMAP
F8
48
70
40
48
F8
ENDCHAR
STARTCHAR F
ENCODING 70
SWIDTH 584 0
DWIDTH 5 0
BBX 5 6 0 0
BITMAP
F8
48
70
40
40
C0
ENDCHAR
STARTCHAR G
ENCODING 71
SWIDTH 753 0
DWIDTH 6 0
BBX 6 6 0 0
BITMAP
78
C8
80
9C
C8
78
ENDCHAR
STARTCHAR H
ENCODING 72
SWIDTH 798 0
DWIDTH 6 0
BBX 7 6 0 0
BITMAP
EE
44
7C
44
44
EE
ENDCHAR
STARTCHAR I
ENCODING 73
SWIDTH 349 0
DWIDTH 3 0
BBX 3 6 0 0
BITMAP
E0
40
40
40
40
E0
ENDCHAR
STARTCHAR J
ENCODING 74
SWIDTH 452 0
DWIDTH 4 0
BBX 4 8 0 -2
BITMAP
70
20
20
20
20
20
A0
E0
ENDCHAR
STARTCHAR K
ENCODING 75
SWIDTH 747 0
DWIDTH 6 0
BBX 6 6 0 0
BITMAP
EC
58
70
70
58
FC
ENDCHAR
STARTCHAR L
ENCODING 76
SWIDTH 584 0
DWIDTH 5 0
BBX 5 6 0 0
BITMAP
E0
40
40
40
48
F8
ENDCHAR
STARTCHAR M
ENCODING 77
SWIDTH 904 0
DWIDTH 7 0
BBX 8 6 0 0
BITMAP
E3
66
76
5A
52
E7
ENDCHAR
STARTCHAR N
ENCODING 78
SWIDTH 788 0
DWIDTH 6 0
BBX 7 6 0 0
BITMAP
CE
64
74
5C
4C
E4
ENDCHAR
STARTCHAR O
ENCODING 79
SWIDTH 810 0
DWIDTH 6 0
BBX 6 6 0 0
BITMAP
78
CC
84
84
CC
78
ENDCHAR
STARTCHAR P
ENCODING 80
SWIDTH 614 0
DWIDTH 5 0
BBX 5 6 0 0
BITMAP
F0
48
48
70
40
E0
ENDCHAR
STARTCHAR Q
ENCODING 81
SWIDTH 810 0
DWIDTH 6 0
BBX 7 8 0 -2
BITMAP
78
CC
84
84
CC
78
0C
06
ENDCHAR
STARTCHAR R
ENCODING 82
SWIDTH 720 0
DWIDTH 6 0
BBX 6 6 0 0
BITMAP
F8
48
48
70
58
EC
ENDCHAR
STARTCHAR S
ENCODING 83
SWIDTH 556 0
DWIDTH 4 0
BBX 4 6 0 0
BITMAP
70
90
E0
30
90
E0
ENDCHAR
STARTCHAR T
ENCODING 84
SWIDTH 714 0
DWIDTH 6 0
BBX 5 6 0 0
BITMAP
F8
20
20
20
20
70
ENDCHAR
STARTCHAR U
ENCODING 85
SWIDTH 747 0
DWIDTH 6 0
BBX 7 6 0 0
BITMAP
EE
44
44
44
44
7C
ENDCHAR
STARTCHAR V
ENCODING 86
SWIDTH 753 0
DWIDTH 6 0
BBX 6 6 0 0
BITMAP
CC
4C
48
28
30
10
ENDCHAR
STARTCHAR W
ENCODING 87
SWIDTH 955 0
DWIDTH 8 0
BBX 8 6 0 0
BITMAP
CB
59
5A
5A
26
24
ENDCHAR
STARTCHAR X
ENCODING 88
SWIDTH 702 0
DWIDTH 6 0
BBX 6 6 0 0
BITMAP
EC
48
38
70
48
DC
ENDCHAR
STARTCHAR Y
ENCODING 89
SWIDTH 717 0
DWIDTH 6 0
BBX 5 6 0 0
BITMAP
C8
58
70
20
20
70
ENDCHAR
STARTCHAR Z
ENCODING 90
SWIDTH 639 0
DWIDTH 5 0
BBX 4 6 1 0
BITMAP
F0
A0
20
40
50
F0
ENDCHAR
STARTCHAR bracketleft
ENCODING 91
SWIDTH 327 0
DWIDTH 3 0
BBX 2 8 0 -2
BITMAP
C0
80
80
80
80
80
80
C0
ENDCHAR
STARTCHAR backslash
ENCODING 92
SWIDTH 527 0
DWIDTH 4 0
BBX 4 8 0 -2
BITMAP
80
C0
40
40
20
20
10
10
ENDCHAR
STARTCHAR bracketright
ENCODING 93
SWIDTH 327 0
DWIDTH 3 0
BBX 2 8 0 -2
BITMAP
C0
40
40
40
40
40
40
C0
ENDCHAR
STARTCHAR asciicircum
ENCODING 94
SWIDTH 623 0
DWIDTH 5 0
BBX 5 5 0 1
BITMAP
20
20
50
50
88
ENDCHAR
STARTCHAR underscore
ENCODING 95
SWIDTH 500 0
DWIDTH 4 0
BBX 3 1 1 -1
BITMAP
E0
ENDCHAR
STARTCHAR grave
ENCODING 96
SWIDTH 617 0
DWIDTH 5 0
BBX 2 1 1 5
BITMAP
C0
ENDCHAR
STARTCHAR a
ENCODING 97
SWIDTH 556 0
DWIDTH 4 0
BBX 4 4 0 0
BITMAP
E0
E0
A0
D0
ENDCHAR
STARTCHAR b
ENCODING 98
SWIDTH 640 0
DWIDTH 5 0
BBX 5 6 0 0
BITMAP
C0
40
70
48
48
70
ENDCHAR
STARTCHAR c
ENCODING 99
SWIDTH 541 0
DWIDTH 4 0
BBX 4 4 0 0
BITMAP
70
90
80
70
ENDCHAR
STARTCHAR d
ENCODING 100
SWIDTH 652 0
DWIDTH 5 0
BBX 5 6 0 0
BITMAP
30
10
70
90
90
78
ENDCHAR
STARTCHAR e
ENCODING 101
SWIDTH 568 0
DWIDTH 5 0
BBX 4 4 0 0
BITMAP
60
F0
80
70
ENDCHAR
STARTCHAR f
ENCODING 102
SWIDTH 416 0
DWIDTH 3 0
BBX 4 6 0 0
BITMAP
70
50
E0
40
40
E0
ENDCHAR
STARTCHAR g
ENCODING 103
SWIDTH 599 0
DWIDTH 5 0
BBX 5 6 0 -2
BITMAP
78
90
F0
F8
88
F0
ENDCHAR
STARTCHAR h
ENCODING 104
SWIDTH 654 0
DWIDTH 5 0
BBX 6 6 0 0
BITMAP
C0
40
78
48
48
FC
ENDCHAR
STARTCHAR i
ENCODING 105
SWIDTH 325 0
DWIDTH 3 0
BBX 3 6 0 0
BITMAP
40
00
C0
40
40
E0
ENDCHAR
STARTCHAR j
ENCODING 106
SWIDTH 355 0
DWIDTH 3 0
BBX 3 8 0 -2
BITMAP
20
00
60
20
20
20
A0
E0
ENDCHAR
STARTCHAR k
ENCODING 107
SWIDTH 654 0
DWIDTH 5 0
BBX 5 6 0 0
BITMAP
C0
40
58
70
70
F8
ENDCHAR
STARTCHAR l
ENCODING 108
SWIDTH 325 0
DWIDTH 3 0
BBX 3 6 0 0
BITMAP
C0
40
40
40
40
E0
ENDCHAR
STARTCHAR m
ENCODING 109
SWIDTH 967 0
DWIDTH 8 0
BBX 9 4 0 0
BITMAP
FF00
4900
4900
FF80
ENDCHAR
STARTCHAR n
ENCODING 110
SWIDTH 654 0
DWIDTH 5 0
BBX 6 4 0 0
BITMAP
F8
48
48
FC
ENDCHAR
STARTCHAR o
ENCODING 111
SWIDTH 617 0
DWIDTH 5 0
BBX 4 4 0 0
BITMAP
60
90
90
60
ENDCHAR
STARTCHAR p
ENCODING 112
SWIDTH 652 0
DWIDTH 5 0
BBX 5 6 0 -2
BITMAP
F0
48
48
70
40
E0
ENDCHAR
STARTCHAR q
ENCODING 113
SWIDTH 640 0
DWIDTH 5 0
BBX 5 6 0 -2
BITMAP
70
90
90
70
10
38
ENDCHAR
STARTCHAR r
ENCODING 114
SWIDTH 462 0
DWIDTH 4 0
BBX 4 4 0 0
BITMAP
F0
50
40
E0
ENDCHAR
STARTCHAR s
ENCODING 115
SWIDTH 525 0
DWIDTH 4 0
BBX 3 4 1 0
BITMAP
E0
E0
E0
E0
ENDCHAR
STARTCHAR t
ENCODING 116
SWIDTH 389 0
DWIDTH 3 0
BBX 3 6 0 0
BITMAP
40
40
E0
40
40
60
ENDCHAR
STARTCHAR u
ENCODING 117
SWIDTH 654 0
DWIDTH 5 0
BBX 6 4 0 0
BITMAP
D8
48
48
7C
ENDCHAR
STARTCHAR v
ENCODING 118
SWIDTH 657 0
DWIDTH 5 0
BBX 5 4 0 0
BITMAP
D8
58
70
20
ENDCHAR
STARTCHAR w
ENCODING 119
SWIDTH 880 0
DWIDTH 7 0
BBX 7 4 0 0
BITMAP
D6
5E
6C
2C
ENDCHAR
STARTCHAR x
ENCODING 120
SWIDTH 608 0
DWIDTH 5 0
BBX 5 4 0 0
BITMAP
F8
70
70
D8
ENDCHAR
STARTCHAR y
ENCODING 121
SWIDTH 654 0
DWIDTH 5 0
BBX 5 6 0 -2
BITMAP
C8
58
50
30
20
40
ENDCHAR
STARTCHAR z
ENCODING 122
SWIDTH 584 0
DWIDTH 5 0
BBX 4 4 0 0
BITMAP
F0
A0
50
F0
ENDCHAR
STARTCHAR braceleft
ENCODING 123
SWIDTH 366 0
DWIDTH 3 0
BBX 2 8 0 -2
BITMAP
C0
80
40
C0
40
40
80
C0
ENDCHAR
STARTCHAR bar
ENCODING 124
SWIDTH 259 0
DWIDTH 2 0
BBX 1 8 1 -2
BITMAP
80
80
80
80
80
80
80
80
ENDCHAR
STARTCHAR braceright
ENCODING 125
SWIDTH 366 0
DWIDTH 3 0
BBX 2 8 0 -2
BITMAP
C0
40
80
C0
80
80
40
C0
ENDCHAR
STARTCHAR asciitilde
ENCODING 126
SWIDTH 623 0
DWIDTH 5 0
BBX 5 2 0 1
BITMAP
E8
B8
ENDCHAR
STARTCHAR space
ENCODING 160
SWIDTH 333 0
DWIDTH 3 0
BBX 1 1 0 0
BITMAP
00
ENDCHAR
STARTCHAR exclamdown
ENCODING 161
SWIDTH 265 0
DWIDTH 2 0
BBX 1 6 1 -2
BITMAP
80
00
80
80
80
80
ENDCHAR
STARTCHAR cent
ENCODING 162
SWIDTH 623 0
DWIDTH 5 0
BBX 3 6 1 0
BITMAP
40
E0
E0
C0
E0
40
ENDCHAR
STARTCHAR sterling
ENCODING 163
SWIDTH 623 0
DWIDTH 5 0
BBX 4 6 1 0
BITMAP
30
50
40
E0
40
F0
ENDCHAR
STARTCHAR currency
ENCODING 164
SWIDTH 623 0
DWIDTH 5 0
BBX 5 6 0 0
BITMAP
88
70
50
50
70
88
ENDCHAR
STARTCHAR yen
ENCODING 165
SWIDTH 623 0
DWIDTH 5 0
BBX 5 6 0 0
BITMAP
C8
58
30
70
70
70
ENDCHAR
STARTCHAR brokenbar
ENCODING 166
SWIDTH 259 0
DWIDTH 2 0
BBX 1 8 1 -2
BITMAP
80
80
80
80
80
80
80
80
ENDCHAR
STARTCHAR section
ENCODING 167
SWIDTH 623 0
DWIDTH 5 0
BBX 4 8 1 -2
BITMAP
70
90
40
B0
D0
20
90
F0
ENDCHAR
STARTCHAR dieresis
ENCODING 168
SWIDTH 617 0
DWIDTH 5 0
BBX 2 1 1 5
BITMAP
C0
ENDCHAR
STARTCHAR copyright
ENCODING 169
SWIDTH 855 0
DWIDTH 7 0
BBX 7 6 0 0
BITMAP
38
5C
B2
A2
54
38
ENDCHAR
STARTCHAR ordfeminine
ENCODING 170
SWIDTH 488 0
DWIDTH 4 0
BBX 3 3 1 3
BITMAP
E0
E0
E0
ENDCHAR
STARTCHAR guillemotleft
ENCODING 171
SWIDTH 566 0
DWIDTH 5 0
BBX 4 4 0 0
BITMAP
50
A0
A0
50
ENDCHAR
STARTCHAR logicalnot
ENCODING 172
SWIDTH 623 0
DWIDTH 5 0
BBX 5 2 0 1
BITMAP
F8
08
ENDCHAR
STARTCHAR hyphen
ENCODING 173
SWIDTH 289 0
DWIDTH 2 0
BBX 2 1 0 2
BITMAP
C0
ENDCHAR
STARTCHAR registered
ENCODING 174
SWIDTH 623 0
DWIDTH 5 0
BBX 3 4 1 2
BITMAP
40
E0
E0
40
ENDCHAR
STARTCHAR macron
ENCODING 175
SWIDTH 617 0
DWIDTH 5 0
BBX 2 1 1 5
BITMAP
C0
ENDCHAR
STARTCHAR degree
ENCODING 176
SWIDTH 259 0
DWIDTH 2 0
BBX 1 2 1 4
BITMAP
80
80
ENDCHAR
STARTCHAR plusminus
ENCODING 177
SWIDTH 623 0
DWIDTH 5 0
BBX 5 5 0 0
BITMAP
20
F8
20
00
F8
ENDCHAR
STARTCHAR twosuperior
ENCODING 178
SWIDTH 374 0
DWIDTH 3 0
BBX 3 3 -3 3
BITMAP
E0
E0
E0
ENDCHAR
STARTCHAR threesuperior
ENCODING 179
SWIDTH 374 0
DWIDTH 3 0
BBX 3 3 -3 3
BITMAP
E0
C0
E0
ENDCHAR
STARTCHAR acute
ENCODING 180
SWIDTH 617 0
DWIDTH 5 0
BBX 2 1 2 5
BITMAP
C0
ENDCHAR
STARTCHAR mu
ENCODING 181
SWIDTH 705 0
DWIDTH 6 0
BBX 6 6 0 -2
BITMAP
D8
48
48
7C
40
40
ENDCHAR
STARTCHAR paragraph
ENCODING 182
SWIDTH 623 0
DWIDTH 5 0
BBX 4 8 0 -2
BITMAP
F0
F0
F0
70
30
30
30
30
ENDCHAR
STARTCHAR periodcentered
ENCODING 183
SWIDTH 623 0
DWIDTH 5 0
BBX 1 1 2 2
BITMAP
80
ENDCHAR
STARTCHAR cedilla
ENCODING 184
SWIDTH 617 0
DWIDTH 5 0
BBX 1 2 2 -2
BITMAP
80
80
ENDCHAR
STARTCHAR onesuperior
ENCODING 185
SWIDTH 374 0
DWIDTH 3 0
BBX 3 3 -3 3
BITMAP
C0
40
E0
ENDCHAR
STARTCHAR ordmasculine
ENCODING 186
SWIDTH 488 0
DWIDTH 4 0
BBX 3 3 0 3
BITMAP
E0
A0
E0
ENDCHAR
STARTCHAR guillemotright
ENCODING 187
SWIDTH 566 0
DWIDTH 5 0
BBX 4 4 0 0
BITMAP
A0
70
70
A0
ENDCHAR
STARTCHAR onequarter
ENCODING 188
SWIDTH 803 0
DWIDTH 6 0
BBX 6 6 2 0
BITMAP
C4
48
F0
1C
3C
44
ENDCHAR
STARTCHAR onehalf
ENCODING 189
SWIDTH 803 0
DWIDTH 6 0
BBX 6 6 2 0
BITMAP
C4
48
F0
1C
3C
5C
ENDCHAR
STARTCHAR threequarters
ENCODING 190
SWIDTH 803 0
DWIDTH 6 0
BBX 6 6 2 0
BITMAP
E4
C8
F0
1C
3C
44
ENDCHAR
STARTCHAR questiondown
ENCODING 191
SWIDTH 505 0
DWIDTH 4 0
BBX 4 6 0 -2
BITMAP
20
20
20
C0
90
70
ENDCHAR
STARTCHAR Agrave
ENCODING 192
SWIDTH 795 0
DWIDTH 6 0
BBX 6 7 0 0
BITMAP
30
20
30
50
78
88
8C
ENDCHAR
STARTCHAR Aacute
ENCODING 193
SWIDTH 795 0
DWIDTH 6 0
BBX 6 7 0 0
BITMAP
30
20
30
50
78
88
8C
ENDCHAR
STARTCHAR Acircumflex
ENCODING 194
SWIDTH 795 0
DWIDTH 6 0
BBX 6 7 0 0
BITMAP
38
20
30
50
78
88
8C
ENDCHAR
STARTCHAR Atilde
ENCODING 195
SWIDTH 795 0
DWIDTH 6 0
BBX 6 7 0 0
BITMAP
38
20
30
50
78
88
8C
ENDCHAR
STARTCHAR Adieresis
ENCODING 196
SWIDTH 795 0
DWIDTH 6 0
BBX 6 7 0 0
BITMAP
30
20
30
50
78
88
8C
ENDCHAR
STARTCHAR Aring
ENCODING 197
SWIDTH 795 0
DWIDTH 6 0
BBX 6 8 0 0
BITMAP
10
28
30
30
50
78
88
8C
ENDCHAR
STARTCHAR AE
ENCODING 198
SWIDTH 959 0
DWIDTH 8 0
BBX 7 6 0 0
BITMAP
0E
12
30
3C
72
BE
ENDCHAR
STARTCHAR Ccedilla
ENCODING 199
SWIDTH 711 0
DWIDTH 6 0
BBX 5 8 0 -2
BITMAP
78
C8
80
80
C0
78
20
20
ENDCHAR
STARTCHAR Egrave
ENCODING 200
SWIDTH 601 0
DWIDTH 5 0
BBX 5 7 0 0
BITMAP
20
F8
48
70
40
48
F8
ENDCHAR
STARTCHAR Eacute
ENCODING 201
SWIDTH 601 0
DWIDTH 5 0
BBX 5 7 0 0
BITMAP
20
F8
48
70
40
48
F8
ENDCHAR
STARTCHAR Ecircumflex
ENCODING 202
SWIDTH 601 0
DWIDTH 5 0
BBX 5 7 0 0
BITMAP
50
F8
48
70
40
48
F8
ENDCHAR
STARTCHAR Edieresis
ENCODING 203
SWIDTH 601 0
DWIDTH 5 0
BBX 5 7 0 0
BITMAP
30
F8
48
70
40
48
F8
ENDCHAR
STARTCHAR Igrave
ENCODING 204
SWIDTH 349 0
DWIDTH 3 0
BBX 3 7 0 0
BITMAP
40
E0
40
40
40
40
E0
ENDCHAR
STARTCHAR Iacute
ENCODING 205
SWIDTH 349 0
DWIDTH 3 0
BBX 3 7 0 0
BITMAP
40
E0
40
40
40
40
E0
ENDCHAR
STARTCHAR Icircumflex
ENCODING 206
SWIDTH 349 0
DWIDTH 3 0
BBX 3 7 0 0
BITMAP
E0
E0
40
40
40
40
E0
ENDCHAR
STARTCHAR Idieresis
ENCODING 207
SWIDTH 349 0
DWIDTH 3 0
BBX 3 7 0 0
BITMAP
C0
E0
40
40
40
40
E0
ENDCHAR
STARTCHAR Eth
ENCODING 208
SWIDTH 794 0
DWIDTH 6 0
BBX 6 6 0 0
BITMAP
F8
44
E4
44
44
F8
ENDCHAR
STARTCHAR Ntilde
ENCODING 209
SWIDTH 788 0
DWIDTH 6 0
BBX 7 7 0 0
BITMAP
38
CE
64
74
5C
4C
E4
ENDCHAR
STARTCHAR Ograve
ENCODING 210
SWIDTH 810 0
DWIDTH 6 0
BBX 6 7 0 0
BITMAP
10
78
CC
84
84
CC
78
ENDCHAR
STARTCHAR Oacute
ENCODING 211
SWIDTH 810 0
DWIDTH 6 0
BBX 6 7 0 0
BITMAP
20
78
CC
84
84
CC
78
ENDCHAR
STARTCHAR Ocircumflex
ENCODING 212
SWIDTH 810 0
DWIDTH 6 0
BBX 6 7 0 0
BITMAP
50
78
CC
84
84
CC
78
ENDCHAR
STARTCHAR Otilde
ENCODING 213
SWIDTH 810 0
DWIDTH 6 0
BBX 6 7 0 0
BITMAP
70
78
CC
84
84
CC
78
ENDCHAR
STARTCHAR Odieresis
ENCODING 214
SWIDTH 810 0
DWIDTH 6 0
BBX 6 7 0 0
BITMAP
30
78
CC
84
84
CC
78
ENDCHAR
STARTCHAR multiply
ENCODING 215
SWIDTH 623 0
DWIDTH 5 0
BBX 5 5 0 0
BITMAP
88
50
20
50
88
ENDCHAR
STARTCHAR Oslash
ENCODING 216
SWIDTH 810 0
DWIDTH 6 0
BBX 6 6 0 0
BITMAP
74
CC
9C
E4
CC
F8
ENDCHAR
STARTCHAR Ugrave
ENCODING 217
SWIDTH 747 0
DWIDTH 6 0
BBX 7 7 0 0
BITMAP
10
EE
44
44
44
44
7C
ENDCHAR
STARTCHAR Uacute
ENCODING 218
SWIDTH 747 0
DWIDTH 6 0
BBX 7 7 0 0
BITMAP
10
EE
44
44
44
44
7C
ENDCHAR
STARTCHAR Ucircumflex
ENCODING 219
SWIDTH 747 0
DWIDTH 6 0
BBX 7 7 0 0
BITMAP
38
EE
44
44
44
44
7C
ENDCHAR
STARTCHAR Udieresis
ENCODING 220
SWIDTH 747 0
DWIDTH 6 0
BBX 7 7 0 0
BITMAP
18
EE
44
44
44
44
7C
ENDCHAR
STARTCHAR Yacute
ENCODING 221
SWIDTH 717 0
DWIDTH 6 0
BBX 5 7 0 0
BITMAP
30
C8
58
70
20
20
70
ENDCHAR
STARTCHAR Thorn
ENCODING 222
SWIDTH 614 0
DWIDTH 5 0
BBX 5 6 0 0
BITMAP
E0
78
48
48
70
E0
ENDCHAR
STARTCHAR germandbls
ENCODING 223
SWIDTH 700 0
DWIDTH 6 0
BBX 5 6 0 0
BITMAP
60
60
60
70
68
F8
ENDCHAR
STARTCHAR agrave
ENCODING 224
SWIDTH 556 0
DWIDTH 4 0
BBX 4 5 0 0
BITMAP
20
E0
E0
A0
D0
ENDCHAR
STARTCHAR aacute
ENCODING 225
SWIDTH 556 0
DWIDTH 4 0
BBX 4 5 0 0
BITMAP
40
E0
E0
A0
D0
ENDCHAR
STARTCHAR acircumflex
ENCODING 226
SWIDTH 556 0
DWIDTH 4 0
BBX 4 5 0 0
BITMAP
E0
E0
E0
A0
D0
ENDCHAR
STARTCHAR atilde
ENCODING 227
SWIDTH 556 0
DWIDTH 4 0
BBX 4 5 0 0
BITMAP
E0
E0
E0
A0
D0
ENDCHAR
STARTCHAR adieresis
ENCODING 228
SWIDTH 556 0
DWIDTH 4 0
BBX 4 5 0 0
BITMAP
60
E0
E0
A0
D0
ENDCHAR
STARTCHAR aring
ENCODING 229
SWIDTH 556 0
DWIDTH 4 0
BBX 4 6 0 0
BITMAP
40
A0
E0
E0
A0
D0
ENDCHAR
STARTCHAR ae
ENCODING 230
SWIDTH 858 0
DWIDTH 7 0
BBX 6 4 0 0
BITMAP
F8
FC
A0
DC
ENDCHAR
STARTCHAR ccedilla
ENCODING 231
SWIDTH 541 0
DWIDTH 4 0
BBX 4 6 0 -2
BITMAP
70
90
80
70
20
20
ENDCHAR
STARTCHAR egrave
ENCODING 232
SWIDTH 568 0
DWIDTH 5 0
BBX 4 5 0 0
BITMAP
60
60
F0
80
70
ENDCHAR
STARTCHAR eacute
ENCODING 233
SWIDTH 568 0
DWIDTH 5 0
BBX 4 5 0 0
BITMAP
60
60
F0
80
70
ENDCHAR
STARTCHAR ecircumflex
ENCODING 234
SWIDTH 568 0
DWIDTH 5 0
BBX 4 5 0 0
BITMAP
70
60
F0
80
70
ENDCHAR
STARTCHAR edieresis
ENCODING 235
SWIDTH 568 0
DWIDTH 5 0
BBX 4 5 0 0
BITMAP
60
60
F0
80
70
ENDCHAR
STARTCHAR igrave
ENCODING 236
SWIDTH 325 0
DWIDTH 3 0
BBX 3 5 0 0
BITMAP
C0
C0
40
40
E0
ENDCHAR
STARTCHAR iacute
ENCODING 237
SWIDTH 325 0
DWIDTH 3 0
BBX 3 5 0 0
BITMAP
60
C0
40
40
E0
ENDCHAR
STARTCHAR icircumflex
ENCODING 238
SWIDTH 325 0
DWIDTH 3 0
BBX 3 5 0 0
BITMAP
E0
C0
40
40
E0
ENDCHAR
STARTCHAR idieresis
ENCODING 239
SWIDTH 325 0
DWIDTH 3 0
BBX 3 5 0 0
BITMAP
C0
C0
40
40
E0
ENDCHAR
STARTCHAR eth
ENCODING 240
SWIDTH 652 0
DWIDTH 5 0
BBX 4 7 1 0
BITMAP
20
E0
F0
70
90
90
60
ENDCHAR
STARTCHAR ntilde
ENCODING 241
SWIDTH 654 0
DWIDTH 5 0
BBX 6 5 0 0
BITMAP
70
F8
48
48
FC
ENDCHAR
STARTCHAR ograve
ENCODING 242
SWIDTH 617 0
DWIDTH 5 0
BBX 4 5 0 0
BITMAP
60
60
90
90
60
ENDCHAR
STARTCHAR oacute
ENCODING 243
SWIDTH 617 0
DWIDTH 5 0
BBX 4 5 0 0
BITMAP
60
60
90
90
60
ENDCHAR
STARTCHAR ocircumflex
ENCODING 244
SWIDTH 617 0
DWIDTH 5 0
BBX 4 5 0 0
BITMAP
70
60
90
90
60
ENDCHAR
STARTCHAR otilde
ENCODING 245
SWIDTH 617 0
DWIDTH 5 0
BBX 4 5 0 0
BITMAP
70
60
90
90
60
ENDCHAR
STARTCHAR odieresis
ENCODING 246
SWIDTH 617 0
DWIDTH 5 0
BBX 4 5 0 0
BITMAP
60
60
90
90
60
ENDCHAR
STARTCHAR divide
ENCODING 247
SWIDTH 623 0
DWIDTH 5 0
BBX 5 4 0 0
BITMAP
20
00
F8
20
ENDCHAR
STARTCHAR oslash
ENCODING 248
SWIDTH 617 0
DWIDTH 5 0
BBX 5 4 0 0
BITMAP
78
B8
E8
F0
ENDCHAR
STARTCHAR ugrave
ENCODING 249
SWIDTH 654 0
DWIDTH 5 0
BBX 6 5 0 0
BITMAP
30
D8
48
48
7C
ENDCHAR
STARTCHAR uacute
ENCODING 250
SWIDTH 654 0
DWIDTH 5 0
BBX 6 5 0 0
BITMAP
30
D8
48
48
7C
ENDCHAR
STARTCHAR ucircumflex
ENCODING 251
SWIDTH 654 0
DWIDTH 5 0
BBX 6 5 0 0
BITMAP
38
D8
48
48
7C
ENDCHAR
STARTCHAR udieresis
ENCODING 252
SWIDTH 654 0
DWIDTH 5 0
BBX 6 5 0 0
BITMAP
30
D8
48
48
7C
ENDCHAR
STARTCHAR yacute
ENCODING 253
SWIDTH 654 0
DWIDTH 5 0
BBX 5 7 0 -2
BITMAP
30
C8
58
50
30
20
40
ENDCHAR
STARTCHAR thorn
ENCODING 254
SWIDTH 652 0
DWIDTH 5 0
BBX 5 8 0 -2
BITMAP
C0
40
70
48
48
70
40
E0
ENDCHAR
STARTCHAR ydieresis
ENCODING 255
SWIDTH 654 0
DWIDTH 5 0
BBX 5 7 0 -2
BITMAP
60
C8
58
50
30
20
40
ENDCHAR
ENDFONT
